<svg width="436" height="329" viewBox="0 0 436 329" fill="none" xmlns="http://www.w3.org/2000/svg">
<g clip-path="url(#clip0)">
<path d="M0.5 135.677L405.546 135.677L405.546 328.5L0.499999 328.5L0.5 135.677Z" stroke="black"/>
<path d="M67.6285 214.195L338.417 214.195L338.417 328.5L67.6285 328.5L67.6285 214.195Z" stroke="black"/>
<path d="M338.917 220.731L67.1285 220.731L67.1285 221.829L338.917 221.829L338.917 220.731Z" fill="#3F3D56"/>
<path d="M72.0277 219.492C73.1072 219.492 73.9823 218.612 73.9823 217.526C73.9823 216.439 73.1072 215.559 72.0277 215.559C70.9482 215.559 70.0731 216.439 70.0731 217.526C70.0731 218.612 70.9482 219.492 72.0277 219.492Z" fill="#3F3D56"/>
<path d="M78.7291 219.492C79.8086 219.492 80.6837 218.612 80.6837 217.526C80.6837 216.439 79.8086 215.559 78.7291 215.559C77.6496 215.559 76.7745 216.439 76.7745 217.526C76.7745 218.612 77.6496 219.492 78.7291 219.492Z" fill="#3F3D56"/>
<path d="M85.4306 219.492C86.5101 219.492 87.3851 218.612 87.3851 217.526C87.3851 216.439 86.5101 215.559 85.4306 215.559C84.3511 215.559 83.476 216.439 83.476 217.526C83.476 218.612 84.3511 219.492 85.4306 219.492Z" fill="#3F3D56"/>
<path d="M62.0223 190.437L54.6736 182.51L62.5523 175.117L69.901 183.044L62.0223 190.437ZM55.845 182.552L62.0631 189.259L68.7297 183.003L62.5116 176.296L55.845 182.552Z" fill="#F0F0F0"/>
<path d="M304.534 185.451L293.76 185.451L293.76 174.612L304.534 174.612L304.534 185.451ZM294.589 184.618L303.706 184.618L303.706 175.446L294.589 175.446L294.589 184.618Z" fill="#3F3D56"/>
<path d="M371.286 277.955C374.324 277.955 376.787 275.478 376.787 272.422C376.787 269.365 374.324 266.888 371.286 266.888C368.249 266.888 365.786 269.365 365.786 272.422C365.786 275.478 368.249 277.955 371.286 277.955Z" fill="#F0F0F0"/>
<path d="M371.286 288.408C368.144 288.408 365.071 287.471 362.458 285.714C359.845 283.957 357.808 281.461 356.606 278.539C355.403 275.618 355.088 272.404 355.701 269.303C356.314 266.202 357.828 263.353 360.05 261.117C362.272 258.881 365.104 257.359 368.186 256.742C371.269 256.125 374.464 256.442 377.367 257.652C380.271 258.862 382.753 260.911 384.499 263.54C386.245 266.169 387.177 269.26 387.177 272.422C387.172 276.66 385.496 280.724 382.517 283.721C379.538 286.718 375.499 288.404 371.286 288.408ZM371.286 257.665C368.385 257.665 365.549 258.53 363.137 260.152C360.725 261.773 358.845 264.078 357.735 266.774C356.625 269.471 356.334 272.438 356.9 275.301C357.466 278.163 358.863 280.793 360.914 282.856C362.966 284.92 365.579 286.326 368.425 286.895C371.27 287.464 374.219 287.172 376.9 286.055C379.58 284.938 381.871 283.047 383.482 280.62C385.094 278.193 385.954 275.34 385.954 272.422C385.95 268.509 384.403 264.758 381.653 261.992C378.903 259.225 375.175 257.669 371.286 257.665Z" fill="#2F2E41"/>
<path d="M352.378 10.4639L309.527 10.4639L309.527 60.6905L352.378 60.6905L352.378 10.4639Z" fill="#F2F2F2"/>
<path d="M337.809 135.758L337.213 135.173C339.952 132.049 342.028 128.396 343.313 124.437C345.338 118.308 346.327 108.628 339.541 97.3212C332.598 85.7525 332.286 76.3561 333.246 70.5106C334.291 64.1501 336.957 60.5849 337.07 60.4363L337.731 60.9446C337.705 60.9795 335.062 64.5258 334.059 70.6966C333.133 76.3937 333.456 85.5625 340.253 96.8884C347.212 108.484 346.181 118.433 344.091 124.736C341.826 131.566 337.972 135.59 337.809 135.758Z" fill="#3F3D56"/>
<path d="M369.019 61.1091L309.111 61.1091L309.111 0.837158L369.019 0.837159L369.019 61.1091ZM309.943 60.272L368.187 60.272L368.187 1.67427L309.943 1.67427L309.943 60.272Z" fill="#3F3D56"/>
<path d="M358.202 18.4165L321.592 18.4165L321.592 19.2536L358.202 19.2536L358.202 18.4165Z" fill="#3F3D56"/>
<path d="M358.202 27.6248L321.592 27.6248L321.592 28.4619L358.202 28.4619L358.202 27.6248Z" fill="#3F3D56"/>
<path d="M358.202 36.8328L321.592 36.8328L321.592 37.6699L358.202 37.6699L358.202 36.8328Z" fill="#3F3D56"/>
<path d="M404.79 172.172L404.194 171.587C406.933 168.463 409.008 164.81 410.294 160.851C412.319 154.722 413.307 145.042 406.522 133.735C399.579 122.167 399.267 112.77 400.227 106.925C401.272 100.564 403.938 96.9989 404.051 96.8503L404.712 97.3586C404.686 97.3936 402.043 100.94 401.04 107.111C400.114 112.808 400.437 121.977 407.234 133.302C414.193 144.899 413.162 154.847 411.072 161.15C408.807 167.98 404.953 172.004 404.79 172.172Z" fill="#3F3D56"/>
<path d="M86.1104 134.92L85.515 134.336C88.2534 131.212 90.3291 127.559 91.6149 123.599C93.6392 117.471 94.628 107.791 87.8424 96.4841C80.8996 84.9154 80.5872 75.5189 81.5475 69.6735C82.5926 63.313 85.2588 59.7477 85.3718 59.5991L86.033 60.1074C86.0064 60.1423 83.3633 63.6886 82.3604 69.8594C81.4345 75.5565 81.7575 84.7253 88.5546 96.0512C95.5137 107.647 94.4828 117.596 92.3927 123.899C90.1279 130.729 86.2735 134.752 86.1104 134.92Z" fill="#3F3D56"/>
<path d="M195.31 153.258L198.204 159.156L204.674 160.102L199.992 164.693L201.097 171.176L195.31 168.115L189.523 171.176L190.628 164.693L185.947 160.102L192.417 159.156L195.31 153.258Z" fill="#F0F0F0"/>
<path d="M205.77 20.2627L205.77 20.2627C215.768 20.2627 223.873 29.3121 223.873 40.475L223.873 54.6577L219.537 54.6577L217.027 49.4029L217.655 54.6577L189.787 54.6577L187.505 49.8806L188.076 54.6577L184.938 54.6577L184.938 43.5217C184.938 30.6761 194.265 20.2627 205.77 20.2627Z" fill="#2F2E41"/>
<path d="M226.513 112.925L237.628 117.677L276.253 149.268C277.673 151.024 278.544 153.164 278.754 155.418C279.032 159.053 290.703 178.063 286.534 180.579C282.366 183.095 267.361 190.643 266.527 185.611C265.694 180.579 261.248 159.053 261.248 159.053L224.012 125.505L226.513 112.925Z" fill="#2F2E41"/>
<path d="M270.14 181.418L274.864 195.396C274.864 195.396 269.862 200.708 272.363 205.181L272.363 220.557L276.253 220.557L277.364 212.449C277.364 212.449 281.796 220.454 284.034 220.557C288.725 220.772 298.016 222.451 298.294 219.934C298.572 217.418 291.258 214.966 291.258 214.966L283.478 193.439L280.143 180.3L270.14 181.418Z" fill="#2F2E41"/>
<path d="M197.613 109.29C197.613 109.29 195.113 133.892 202.337 138.365C209.562 142.838 241.518 157.096 241.518 157.096C241.518 157.096 227.902 169.956 230.681 173.031C233.46 176.106 245.964 184.493 247.632 182.816C249.299 181.138 267.917 161.01 265.694 154.58C263.471 148.15 232.626 127.182 232.626 127.182L229.014 114.043L227.902 103.419L216.231 95.8711L197.613 109.29Z" fill="#2F2E41"/>
<path d="M210.344 52.0113C216.742 52.0113 221.929 46.7934 221.929 40.3567C221.929 33.9201 216.742 28.7021 210.344 28.7021C203.947 28.7021 198.76 33.9201 198.76 40.3567C198.76 46.7934 203.947 52.0113 210.344 52.0113Z" fill="#FFB9B9"/>
<path d="M201.365 45.1301C201.365 45.1301 201.921 55.7536 193.306 59.1083C184.692 62.4631 214.703 84.2691 214.703 84.2691L214.703 59.947C214.703 59.947 210.813 55.7536 214.703 49.3236L201.365 45.1301Z" fill="#FFB9B9"/>
<path d="M182.886 95.0325L185.109 105.935L191.778 143.397C191.778 143.397 186.22 159.332 193.723 159.053C201.226 158.773 197.613 141.72 197.613 141.72L193.723 110.688L193.723 98.6668L182.886 95.0325Z" fill="#FFB9B9"/>
<path d="M230.681 89.7207L233.182 99.5055L244.575 127.182C244.575 127.182 252.355 140.322 245.964 140.042C239.573 139.763 239.573 127.182 239.573 127.182L226.513 104.817L226.513 92.2368L230.681 89.7207Z" fill="#FFB9B9"/>
<path d="M232.626 171.354L223.456 180.02C223.456 180.02 217.065 178.622 214.564 186.17C212.063 193.719 210.396 198.471 210.396 198.471L213.73 200.428L217.899 194.557C217.899 194.557 220.399 205.181 222.9 206.019C225.401 206.858 237.906 212.449 236.794 206.019L230.681 197.073C230.681 197.073 229.847 187.009 232.348 186.17C234.849 185.332 241.518 176.945 241.518 176.945L232.626 171.354Z" fill="#2F2E41"/>
<path d="M197.173 117.957C197.173 117.957 223.293 108.451 224.961 109.29C226.202 109.842 227.524 110.187 228.875 110.312L228.851 106.494C228.851 106.494 220.237 103.419 215.513 105.376C210.789 107.333 196.339 116 196.339 116L197.173 117.957Z" fill="#3F3D56"/>
<path d="M213.036 78.6779C213.036 78.6779 205.533 70.0114 203.31 64.6997C201.903 61.4796 199.322 58.9256 196.098 57.5649C196.098 57.5649 179.412 61.3449 179.69 68.0545C179.968 74.764 190.25 85.1079 190.25 85.1079C190.25 85.1079 188.86 122.29 196.363 121.731C197.981 119.788 199.123 117.49 199.698 115.021C200.531 111.107 226.374 106.914 226.374 106.914C226.374 106.914 228.597 110.828 228.875 109.15C229.153 107.473 226.652 66.3771 226.652 66.3771L213.401 57.5649L213.036 78.6779Z" fill="#D0CDE1"/>
<path d="M181.831 65.3538L181.645 65.4588C181.051 65.7941 180.557 66.2825 180.212 66.8738C179.868 67.465 179.687 68.1378 179.687 68.8229L179.69 89.5702C179.688 90.1342 179.564 90.6909 179.327 91.2018C179.089 91.7127 178.744 92.1655 178.316 92.5289C177.245 93.4449 176.253 94.7648 178.301 95.4518C181.636 96.57 194.696 102.161 194.974 100.204C195.252 98.2474 195.807 96.0109 194.974 96.0109C194.321 96.0109 190.433 75.9639 187.308 67.3925C187.117 66.8678 186.815 66.391 186.423 65.9952C186.031 65.5993 185.559 65.2939 185.038 65.1C184.517 64.9061 183.96 64.8284 183.407 64.8722C182.853 64.916 182.315 65.0803 181.831 65.3538V65.3538Z" fill="#D0CDE1"/>
<path d="M222.9 65.3987L226.791 66.5169L231.237 85.8069C231.237 85.8069 236.516 86.9252 234.849 88.8821C233.182 90.8391 226.235 95.8712 226.235 95.8712L222.9 65.3987Z" fill="#D0CDE1"/>
<path d="M200.623 25.8304C201.495 24.6535 202.624 23.6943 203.923 23.0273C205.222 22.3604 206.656 22.0035 208.115 21.9844L208.47 21.9844C215.323 21.9844 220.878 28.2229 220.878 35.9185L220.878 35.9185L218.582 35.9185L218.211 33.0788L217.667 35.9185L204.049 35.9185L202.908 33.5161L203.193 35.9185L200.514 35.9185C199.264 42.1649 201.06 48.4112 205.903 54.6575L201.339 54.6575L199.057 49.8527L199.628 54.6575L190.928 54.6575L189.217 43.6063C189.217 35.3299 193.996 28.3118 200.623 25.8304Z" fill="#2F2E41"/>
<path d="M81.3913 86.2958C99.3568 86.2958 113.921 71.9499 113.921 54.2533C113.921 36.5568 99.3568 22.2109 81.3913 22.2109C63.4259 22.2109 48.8621 36.5568 48.8621 54.2533C48.8621 71.9499 63.4259 86.2958 81.3913 86.2958Z" fill="#F0F0F0"/>
<path d="M79.8326 73.1615L79.8326 68.4978C77.4394 68.4518 74.9634 67.6204 73.5193 66.4661L74.5095 63.3724C76.2258 64.6393 78.3071 65.3347 80.4516 65.3578C83.3814 65.3578 85.3621 63.4646 85.3621 60.8327C85.3621 58.293 83.7527 56.7232 80.6992 55.3378C76.4902 53.4909 73.8906 51.3667 73.8906 47.3496C73.8906 43.517 76.3252 40.608 80.1216 39.9154L80.1216 35.2517L82.6799 35.2517L82.6799 39.7307C84.5876 39.7564 86.4484 40.317 88.0443 41.3468L87.0125 44.3944C85.4819 43.3623 83.6682 42.8146 81.8133 42.8244C78.6361 42.8244 77.4394 44.9483 77.4394 46.7955C77.4394 49.1965 78.9661 50.397 82.5562 52.0595C86.8062 53.9989 88.9521 56.3999 88.9521 60.5094C88.9521 64.1572 86.6825 67.5744 82.4323 68.3589L82.4323 73.1615L79.8326 73.1615Z" fill="#3F3D56"/>
<path d="M126.923 264.832L115.673 264.832L115.673 272.449L128.876 272.449L128.876 277.156L109.813 277.156L109.813 248.719L128.837 248.719L128.837 253.465L115.673 253.465L115.673 260.242L126.923 260.242L126.923 264.832ZM139.969 248.719L147.274 269.344L154.54 248.719L162.235 248.719L162.235 277.156L156.356 277.156L156.356 269.383L156.942 255.965L149.266 277.156L145.243 277.156L137.587 255.984L138.173 269.383L138.173 277.156L132.313 277.156L132.313 248.719L139.969 248.719ZM177.313 277.156L177.313 248.719L187.274 248.719C190.725 248.719 193.342 249.383 195.126 250.711C196.91 252.026 197.802 253.959 197.802 256.511C197.802 257.905 197.443 259.135 196.727 260.203C196.011 261.258 195.015 262.032 193.739 262.527C195.197 262.892 196.343 263.627 197.177 264.734C198.023 265.841 198.446 267.195 198.446 268.797C198.446 271.531 197.574 273.601 195.829 275.008C194.084 276.414 191.597 277.13 188.368 277.156L177.313 277.156ZM183.173 264.773L183.173 272.449L188.192 272.449C189.572 272.449 190.647 272.123 191.415 271.472C192.196 270.808 192.587 269.897 192.587 268.738C192.587 266.134 191.239 264.812 188.544 264.773L183.173 264.773ZM183.173 260.633L187.509 260.633C190.464 260.58 191.942 259.402 191.942 257.097C191.942 255.808 191.565 254.884 190.809 254.324C190.067 253.751 188.889 253.465 187.274 253.465L183.173 253.465L183.173 260.633ZM213.387 266.746L208.719 266.746L208.719 277.156L202.86 277.156L202.86 248.719L213.427 248.719C216.786 248.719 219.377 249.467 221.2 250.965C223.023 252.462 223.934 254.578 223.934 257.312C223.934 259.252 223.511 260.873 222.665 262.176C221.831 263.465 220.562 264.493 218.856 265.261L225.009 276.883L225.009 277.156L218.719 277.156L213.387 266.746ZM208.719 262L213.446 262C214.917 262 216.057 261.629 216.864 260.886C217.671 260.131 218.075 259.096 218.075 257.781C218.075 256.44 217.691 255.385 216.923 254.617C216.167 253.849 215.002 253.465 213.427 253.465L208.719 253.465L208.719 262ZM245.516 264.832L234.266 264.832L234.266 272.449L247.469 272.449L247.469 277.156L228.407 277.156L228.407 248.719L247.43 248.719L247.43 253.465L234.266 253.465L234.266 260.242L245.516 260.242L245.516 264.832ZM261.415 270.105L267.86 248.719L274.384 248.719L264.481 277.156L258.368 277.156L248.505 248.719L255.009 248.719L261.415 270.105ZM294.188 264.832L282.938 264.832L282.938 272.449L296.141 272.449L296.141 277.156L277.079 277.156L277.079 248.719L296.102 248.719L296.102 253.465L282.938 253.465L282.938 260.242L294.188 260.242L294.188 264.832Z" fill="#3F3D56"/>
<path d="M399.921 116.47C393.676 116.47 387.571 114.56 382.378 110.983C377.185 107.406 373.138 102.322 370.748 96.3738C368.358 90.4255 367.733 83.8801 368.952 77.5653C370.17 71.2506 373.177 65.4501 377.593 60.8975C382.009 56.3448 387.635 53.2444 393.76 51.9883C399.886 50.7322 406.234 51.3769 412.004 53.8408C417.774 56.3047 422.705 60.4771 426.175 65.8305C429.645 71.1839 431.496 77.4777 431.496 83.9162C431.487 92.5469 428.157 100.821 422.238 106.924C416.318 113.027 408.292 116.46 399.921 116.47V116.47Z" fill="#F0F0F0"/>
<path d="M411.281 100.553C410.454 100.553 409.661 100.215 409.076 99.6125C408.491 99.0103 408.162 98.1933 408.16 97.341L408.16 79.0759C408.161 78.2244 408.49 77.408 409.074 76.8059C409.658 76.2038 410.449 75.8652 411.275 75.8642L411.281 75.8642C412.107 75.8652 412.899 76.2038 413.483 76.8059C414.067 77.408 414.395 78.2244 414.396 79.0759L414.396 97.341C414.395 98.1924 414.067 99.0088 413.483 99.6109C412.899 100.213 412.107 100.552 411.281 100.553ZM403.147 100.553C402.735 100.557 402.326 100.477 401.943 100.318C401.561 100.158 401.213 99.9228 400.919 99.6243C400.626 99.3258 400.392 98.9704 400.232 98.5786C400.072 98.1867 399.989 97.7661 399.987 97.341L399.987 87.502C399.988 86.6506 400.317 85.8343 400.901 85.2322C401.485 84.6302 402.276 84.2916 403.102 84.2907L403.147 84.2907C403.973 84.2916 404.765 84.6302 405.349 85.2322C405.933 85.8343 406.261 86.6506 406.262 87.502L406.262 97.341C406.261 98.1924 405.933 99.0088 405.349 99.6109C404.765 100.213 403.973 100.552 403.147 100.553V100.553ZM394.935 100.553C394.108 100.553 393.315 100.215 392.73 99.6125C392.145 99.0103 391.815 98.1933 391.814 97.341L391.814 69.2508C391.815 68.3993 392.144 67.583 392.728 66.9809C393.312 66.3788 394.103 66.04 394.929 66.0391L394.935 66.0391C395.761 66.04 396.552 66.3788 397.136 66.9809C397.72 67.583 398.049 68.3993 398.05 69.2508L398.05 97.341C398.049 98.1924 397.72 99.0088 397.136 99.6109C396.552 100.213 395.761 100.552 394.935 100.553V100.553ZM386.754 100.553C386.344 100.553 385.938 100.47 385.56 100.309C385.181 100.148 384.838 99.9109 384.548 99.6123C384.258 99.3138 384.029 98.9593 383.872 98.5692C383.715 98.179 383.635 97.7608 383.635 97.3386L383.639 93.1196C383.639 92.2679 383.968 91.4512 384.552 90.8492C385.136 90.2472 385.929 89.9092 386.755 89.9095C387.581 89.9099 388.373 90.2486 388.957 90.8511C389.541 91.4536 389.869 92.2706 389.869 93.1224L389.869 97.341C389.868 98.1924 389.539 99.0088 388.955 99.6109C388.371 100.213 387.58 100.552 386.754 100.553V100.553Z" fill="#3F3D56"/>
</g>
<defs>
<clipPath id="clip0">
<rect width="436" height="329" fill="white"/>
</clipPath>
</defs>
</svg>
